<svg xmlns="http://www.w3.org/2000/svg" viewBox="0 0 720 240" role="img" aria-labelledby="title desc">
  <title id="title">NXS-Go logo</title>
  <desc id="desc">Signal and Noise sources connected through a living network.</desc>
  <rect width="720" height="240" rx="28" fill="#111318"/>
  <g fill="none" stroke-linecap="round" stroke-linejoin="round">
    <path d="M148 120 C220 52 302 52 372 120 C442 188 524 188 596 120" stroke="#2f8cff" stroke-width="10"/>
    <path d="M148 120 C220 188 302 188 372 120 C442 52 524 52 596 120" stroke="#ff4d5f" stroke-width="10" opacity="0.88"/>
    <path d="M250 86 L372 120 L494 154" stroke="#f5f7fb" stroke-width="5" opacity="0.52"/>
    <path d="M250 154 L372 120 L494 86" stroke="#f5f7fb" stroke-width="5" opacity="0.52"/>
  </g>
  <g>
    <circle cx="148" cy="120" r="34" fill="#111318" stroke="#2f8cff" stroke-width="10"/>
    <circle cx="148" cy="120" r="11" fill="#2f8cff"/>
    <circle cx="596" cy="120" r="34" fill="#111318" stroke="#ff4d5f" stroke-width="10"/>
    <circle cx="596" cy="120" r="11" fill="#ff4d5f"/>
    <circle cx="372" cy="120" r="18" fill="#f5f7fb"/>
    <circle cx="250" cy="86" r="11" fill="#f5f7fb" opacity="0.86"/>
    <circle cx="250" cy="154" r="11" fill="#f5f7fb" opacity="0.86"/>
    <circle cx="494" cy="86" r="11" fill="#f5f7fb" opacity="0.86"/>
    <circle cx="494" cy="154" r="11" fill="#f5f7fb" opacity="0.86"/>
  </g>
  <text x="360" y="214" text-anchor="middle" fill="#f5f7fb" font-family="Segoe UI, Arial, sans-serif" font-size="42" font-weight="700" letter-spacing="0">NXS-Go</text>
</svg>

